<mxfile host="app.diagrams.net" modified="2023-08-11T14:17:31.775Z" agent="Mozilla/5.0 (Windows NT 10.0; Win64; x64) AppleWebKit/537.36 (KHTML, like Gecko) Chrome/115.0.0.0 Safari/537.36" etag="i6Yxeyo_Uk8aIzJNmAxt" version="21.6.7" type="device">
  <diagram name="Page-1" id="yr50YA1ukTU3YOJ_4Lfw">
    <mxGraphModel dx="2810" dy="2240" grid="1" gridSize="10" guides="1" tooltips="1" connect="1" arrows="1" fold="1" page="1" pageScale="1" pageWidth="850" pageHeight="1100" math="0" shadow="0">
      <root>
        <mxCell id="0" />
        <mxCell id="1" parent="0" />
        <mxCell id="aDZ645ws1fKtsJkADAar-1" value="" style="rounded=0;whiteSpace=wrap;html=1;dashed=1;" vertex="1" parent="1">
          <mxGeometry x="-200" y="-160" width="730" height="1000" as="geometry" />
        </mxCell>
        <mxCell id="aDZ645ws1fKtsJkADAar-2" value="" style="html=1;verticalLabelPosition=bottom;align=center;labelBackgroundColor=#ffffff;verticalAlign=top;strokeWidth=2;strokeColor=#0080F0;shadow=0;dashed=0;shape=mxgraph.ios7.icons.monitor;" vertex="1" parent="1">
          <mxGeometry x="-380" y="700" width="120" height="80" as="geometry" />
        </mxCell>
        <mxCell id="aDZ645ws1fKtsJkADAar-3" value="Read segment of audio" style="rounded=1;whiteSpace=wrap;html=1;fontSize=16;glass=0;strokeWidth=1;shadow=0;fontStyle=1" vertex="1" parent="1">
          <mxGeometry x="80" y="-120" width="160" height="80" as="geometry" />
        </mxCell>
        <mxCell id="aDZ645ws1fKtsJkADAar-4" value="" style="rounded=0;html=1;jettySize=auto;orthogonalLoop=1;fontSize=11;endArrow=block;endFill=0;endSize=8;strokeWidth=1;shadow=0;labelBackgroundColor=none;edgeStyle=orthogonalEdgeStyle;exitX=0.5;exitY=1;exitDx=0;exitDy=0;entryX=0.5;entryY=0;entryDx=0;entryDy=0;" edge="1" parent="1" source="aDZ645ws1fKtsJkADAar-3" target="aDZ645ws1fKtsJkADAar-5">
          <mxGeometry relative="1" as="geometry">
            <mxPoint x="184" y="230" as="sourcePoint" />
            <mxPoint x="160" y="20" as="targetPoint" />
          </mxGeometry>
        </mxCell>
        <mxCell id="aDZ645ws1fKtsJkADAar-5" value="Save segment of audio" style="rounded=1;whiteSpace=wrap;html=1;fontSize=16;glass=0;strokeWidth=1;shadow=0;fontStyle=1" vertex="1" parent="1">
          <mxGeometry x="80" y="-10" width="160" height="80" as="geometry" />
        </mxCell>
        <mxCell id="aDZ645ws1fKtsJkADAar-6" value="" style="rounded=0;html=1;jettySize=auto;orthogonalLoop=1;fontSize=11;endArrow=block;endFill=0;endSize=8;strokeWidth=1;shadow=0;labelBackgroundColor=none;edgeStyle=orthogonalEdgeStyle;exitX=0.5;exitY=1;exitDx=0;exitDy=0;entryX=0.5;entryY=0;entryDx=0;entryDy=0;" edge="1" parent="1" source="aDZ645ws1fKtsJkADAar-5" target="aDZ645ws1fKtsJkADAar-7">
          <mxGeometry relative="1" as="geometry">
            <mxPoint x="170" y="-30" as="sourcePoint" />
            <mxPoint x="160" y="130" as="targetPoint" />
          </mxGeometry>
        </mxCell>
        <mxCell id="aDZ645ws1fKtsJkADAar-7" value="Have&lt;br style=&quot;border-color: var(--border-color); font-size: 16px;&quot;&gt;X seconds&lt;br style=&quot;border-color: var(--border-color); font-size: 16px;&quot;&gt;passed?" style="rhombus;whiteSpace=wrap;html=1;shadow=0;fontFamily=Helvetica;fontSize=16;align=center;strokeWidth=1;spacing=6;spacingTop=-4;fontStyle=1" vertex="1" parent="1">
          <mxGeometry x="80" y="100" width="160" height="110" as="geometry" />
        </mxCell>
        <mxCell id="aDZ645ws1fKtsJkADAar-8" value="&lt;font style=&quot;font-size: 16px;&quot;&gt;&lt;b&gt;No&lt;/b&gt;&lt;/font&gt;" style="edgeStyle=orthogonalEdgeStyle;rounded=0;html=1;jettySize=auto;orthogonalLoop=1;fontSize=11;endArrow=block;endFill=0;endSize=8;strokeWidth=1;shadow=0;labelBackgroundColor=none;exitX=0.5;exitY=1;exitDx=0;exitDy=0;entryX=0.5;entryY=0;entryDx=0;entryDy=0;" edge="1" parent="1" source="aDZ645ws1fKtsJkADAar-7" target="aDZ645ws1fKtsJkADAar-9">
          <mxGeometry x="0.0062" y="-20" relative="1" as="geometry">
            <mxPoint y="-1" as="offset" />
            <mxPoint x="250" y="420" as="sourcePoint" />
            <mxPoint x="180" y="350" as="targetPoint" />
            <Array as="points" />
          </mxGeometry>
        </mxCell>
        <mxCell id="aDZ645ws1fKtsJkADAar-9" value="Is the lastest&lt;br&gt;slice captured?" style="rhombus;whiteSpace=wrap;html=1;shadow=0;fontFamily=Helvetica;fontSize=16;align=center;strokeWidth=1;spacing=6;spacingTop=-4;fontStyle=1" vertex="1" parent="1">
          <mxGeometry x="80" y="240" width="160" height="110" as="geometry" />
        </mxCell>
        <mxCell id="aDZ645ws1fKtsJkADAar-10" value="&lt;font style=&quot;font-size: 16px;&quot;&gt;&lt;b&gt;Yes&lt;/b&gt;&lt;/font&gt;" style="edgeStyle=orthogonalEdgeStyle;rounded=0;html=1;jettySize=auto;orthogonalLoop=1;fontSize=11;endArrow=block;endFill=0;endSize=8;strokeWidth=1;shadow=0;labelBackgroundColor=none;exitX=1;exitY=0.5;exitDx=0;exitDy=0;entryX=0.438;entryY=1.019;entryDx=0;entryDy=0;entryPerimeter=0;" edge="1" parent="1" source="aDZ645ws1fKtsJkADAar-7" target="aDZ645ws1fKtsJkADAar-25">
          <mxGeometry x="0.0164" y="-20" relative="1" as="geometry">
            <mxPoint as="offset" />
            <mxPoint x="390" y="330" as="sourcePoint" />
            <mxPoint x="340" y="-10" as="targetPoint" />
            <Array as="points">
              <mxPoint x="350" y="155" />
            </Array>
          </mxGeometry>
        </mxCell>
        <mxCell id="aDZ645ws1fKtsJkADAar-11" value="&lt;font style=&quot;font-size: 16px;&quot;&gt;&lt;b&gt;Yes&lt;/b&gt;&lt;/font&gt;" style="edgeStyle=orthogonalEdgeStyle;rounded=0;html=1;jettySize=auto;orthogonalLoop=1;fontSize=11;endArrow=block;endFill=0;endSize=8;strokeWidth=1;shadow=0;labelBackgroundColor=none;exitX=0;exitY=0.5;exitDx=0;exitDy=0;entryX=0.5;entryY=0;entryDx=0;entryDy=0;" edge="1" parent="1" source="aDZ645ws1fKtsJkADAar-7" target="aDZ645ws1fKtsJkADAar-12">
          <mxGeometry x="0.1529" y="20" relative="1" as="geometry">
            <mxPoint as="offset" />
            <mxPoint x="250" y="230" as="sourcePoint" />
            <mxPoint x="160" y="360" as="targetPoint" />
          </mxGeometry>
        </mxCell>
        <mxCell id="aDZ645ws1fKtsJkADAar-12" value="Load DRL model&lt;br style=&quot;font-size: 16px;&quot;&gt;(Online Mode)" style="rounded=1;whiteSpace=wrap;html=1;fontSize=16;glass=0;strokeWidth=1;shadow=0;fontStyle=1" vertex="1" parent="1">
          <mxGeometry x="-160" y="390" width="160" height="80" as="geometry" />
        </mxCell>
        <mxCell id="aDZ645ws1fKtsJkADAar-13" value="" style="rounded=0;html=1;jettySize=auto;orthogonalLoop=1;fontSize=11;endArrow=block;endFill=0;endSize=8;strokeWidth=1;shadow=0;labelBackgroundColor=none;edgeStyle=orthogonalEdgeStyle;exitX=0.5;exitY=1;exitDx=0;exitDy=0;entryX=0;entryY=0.5;entryDx=0;entryDy=0;" edge="1" parent="1" source="aDZ645ws1fKtsJkADAar-12" target="aDZ645ws1fKtsJkADAar-14">
          <mxGeometry relative="1" as="geometry">
            <mxPoint x="170" y="290" as="sourcePoint" />
            <mxPoint x="160" y="480" as="targetPoint" />
          </mxGeometry>
        </mxCell>
        <mxCell id="aDZ645ws1fKtsJkADAar-14" value="Assign the frames to the environments" style="rounded=1;whiteSpace=wrap;html=1;fontSize=16;glass=0;strokeWidth=1;shadow=0;fontStyle=1" vertex="1" parent="1">
          <mxGeometry x="-40" y="490" width="160" height="80" as="geometry" />
        </mxCell>
        <mxCell id="aDZ645ws1fKtsJkADAar-15" value="" style="rounded=0;html=1;jettySize=auto;orthogonalLoop=1;fontSize=11;endArrow=block;endFill=0;endSize=8;strokeWidth=1;shadow=0;labelBackgroundColor=none;edgeStyle=orthogonalEdgeStyle;exitX=0.5;exitY=1;exitDx=0;exitDy=0;entryX=0.5;entryY=0;entryDx=0;entryDy=0;" edge="1" parent="1" source="aDZ645ws1fKtsJkADAar-14" target="aDZ645ws1fKtsJkADAar-24">
          <mxGeometry relative="1" as="geometry">
            <mxPoint x="170" y="630" as="sourcePoint" />
            <mxPoint x="170" y="830" as="targetPoint" />
          </mxGeometry>
        </mxCell>
        <mxCell id="aDZ645ws1fKtsJkADAar-16" value="&lt;font style=&quot;font-size: 16px;&quot;&gt;&lt;b&gt;Yes&lt;/b&gt;&lt;/font&gt;" style="edgeStyle=orthogonalEdgeStyle;rounded=0;html=1;jettySize=auto;orthogonalLoop=1;fontSize=11;endArrow=block;endFill=0;endSize=8;strokeWidth=1;shadow=0;labelBackgroundColor=none;exitX=0.5;exitY=1;exitDx=0;exitDy=0;entryX=0.5;entryY=0;entryDx=0;entryDy=0;" edge="1" parent="1" source="aDZ645ws1fKtsJkADAar-9" target="aDZ645ws1fKtsJkADAar-17">
          <mxGeometry y="20" relative="1" as="geometry">
            <mxPoint as="offset" />
            <mxPoint x="170" y="290" as="sourcePoint" />
            <mxPoint x="400" y="340" as="targetPoint" />
          </mxGeometry>
        </mxCell>
        <mxCell id="aDZ645ws1fKtsJkADAar-17" value="Start Agent&lt;br style=&quot;font-size: 16px;&quot;&gt;(Offline Mode)" style="rounded=1;whiteSpace=wrap;html=1;fontSize=16;glass=0;strokeWidth=1;shadow=0;fontStyle=1" vertex="1" parent="1">
          <mxGeometry x="75" y="390" width="170" height="80" as="geometry" />
        </mxCell>
        <mxCell id="aDZ645ws1fKtsJkADAar-18" value="" style="rounded=0;html=1;jettySize=auto;orthogonalLoop=1;fontSize=11;endArrow=block;endFill=0;endSize=8;strokeWidth=1;shadow=0;labelBackgroundColor=none;edgeStyle=orthogonalEdgeStyle;exitX=0.5;exitY=1;exitDx=0;exitDy=0;entryX=1;entryY=0.5;entryDx=0;entryDy=0;" edge="1" parent="1" source="aDZ645ws1fKtsJkADAar-17" target="aDZ645ws1fKtsJkADAar-14">
          <mxGeometry relative="1" as="geometry">
            <mxPoint x="170" y="560" as="sourcePoint" />
            <mxPoint x="170" y="640" as="targetPoint" />
          </mxGeometry>
        </mxCell>
        <mxCell id="aDZ645ws1fKtsJkADAar-19" value="" style="endArrow=classic;html=1;rounded=0;exitX=1;exitY=0.5;exitDx=0;exitDy=0;entryX=0;entryY=0.5;entryDx=0;entryDy=0;exitPerimeter=0;" edge="1" parent="1" target="aDZ645ws1fKtsJkADAar-3" source="aDZ645ws1fKtsJkADAar-27">
          <mxGeometry width="50" height="50" relative="1" as="geometry">
            <mxPoint x="-240" y="-80" as="sourcePoint" />
            <mxPoint x="-140" y="50" as="targetPoint" />
          </mxGeometry>
        </mxCell>
        <mxCell id="aDZ645ws1fKtsJkADAar-20" value="Output processed frames" style="rounded=1;whiteSpace=wrap;html=1;fontSize=16;glass=0;strokeWidth=1;shadow=0;fontStyle=1" vertex="1" parent="1">
          <mxGeometry x="-40" y="710" width="160" height="80" as="geometry" />
        </mxCell>
        <mxCell id="aDZ645ws1fKtsJkADAar-21" value="" style="rounded=0;html=1;jettySize=auto;orthogonalLoop=1;fontSize=11;endArrow=block;endFill=0;endSize=8;strokeWidth=1;shadow=0;labelBackgroundColor=none;edgeStyle=orthogonalEdgeStyle;exitX=0.5;exitY=1;exitDx=0;exitDy=0;entryX=0.5;entryY=0;entryDx=0;entryDy=0;" edge="1" parent="1" source="aDZ645ws1fKtsJkADAar-24" target="aDZ645ws1fKtsJkADAar-20">
          <mxGeometry relative="1" as="geometry">
            <mxPoint x="310" y="800" as="sourcePoint" />
            <mxPoint x="310" y="880" as="targetPoint" />
          </mxGeometry>
        </mxCell>
        <mxCell id="aDZ645ws1fKtsJkADAar-22" value="&lt;font style=&quot;font-size: 16px;&quot;&gt;&lt;b&gt;No&lt;/b&gt;&lt;/font&gt;" style="edgeStyle=orthogonalEdgeStyle;rounded=0;html=1;jettySize=auto;orthogonalLoop=1;fontSize=11;endArrow=block;endFill=0;endSize=8;strokeWidth=1;shadow=0;labelBackgroundColor=none;exitX=1;exitY=0.5;exitDx=0;exitDy=0;entryX=1;entryY=0.25;entryDx=0;entryDy=0;" edge="1" parent="1" source="aDZ645ws1fKtsJkADAar-9" target="aDZ645ws1fKtsJkADAar-3">
          <mxGeometry x="0.2783" y="-20" relative="1" as="geometry">
            <mxPoint as="offset" />
            <mxPoint x="590" y="365" as="sourcePoint" />
            <mxPoint x="470" y="-210" as="targetPoint" />
            <Array as="points">
              <mxPoint x="470" y="295" />
              <mxPoint x="470" y="-100" />
            </Array>
          </mxGeometry>
        </mxCell>
        <mxCell id="aDZ645ws1fKtsJkADAar-23" value="" style="endArrow=classic;html=1;rounded=0;exitX=0;exitY=0.5;exitDx=0;exitDy=0;" edge="1" parent="1" source="aDZ645ws1fKtsJkADAar-20">
          <mxGeometry width="50" height="50" relative="1" as="geometry">
            <mxPoint x="-50" y="959.66" as="sourcePoint" />
            <mxPoint x="-260" y="750" as="targetPoint" />
            <Array as="points" />
          </mxGeometry>
        </mxCell>
        <mxCell id="aDZ645ws1fKtsJkADAar-24" value="Collect metrics from the environments" style="rounded=1;whiteSpace=wrap;html=1;fontSize=16;glass=0;strokeWidth=1;shadow=0;fontStyle=1" vertex="1" parent="1">
          <mxGeometry x="-40" y="600" width="160" height="80" as="geometry" />
        </mxCell>
        <mxCell id="aDZ645ws1fKtsJkADAar-25" value="Reset X&lt;br&gt;counter" style="rounded=1;whiteSpace=wrap;html=1;fontSize=16;glass=0;strokeWidth=1;shadow=0;fontStyle=1" vertex="1" parent="1">
          <mxGeometry x="280" y="-10" width="160" height="80" as="geometry" />
        </mxCell>
        <mxCell id="aDZ645ws1fKtsJkADAar-26" value="" style="rounded=0;html=1;jettySize=auto;orthogonalLoop=1;fontSize=11;endArrow=block;endFill=0;endSize=8;strokeWidth=1;shadow=0;labelBackgroundColor=none;edgeStyle=orthogonalEdgeStyle;exitX=0;exitY=0.5;exitDx=0;exitDy=0;entryX=1;entryY=0.5;entryDx=0;entryDy=0;" edge="1" parent="1" source="aDZ645ws1fKtsJkADAar-25" target="aDZ645ws1fKtsJkADAar-3">
          <mxGeometry relative="1" as="geometry">
            <mxPoint x="170" y="-30" as="sourcePoint" />
            <mxPoint x="170" as="targetPoint" />
          </mxGeometry>
        </mxCell>
        <mxCell id="aDZ645ws1fKtsJkADAar-27" value="" style="pointerEvents=1;verticalLabelPosition=bottom;shadow=0;dashed=0;align=center;html=1;verticalAlign=top;shape=mxgraph.electrical.signal_sources.source;aspect=fixed;points=[[0.5,0,0],[1,0.5,0],[0.5,1,0],[0,0.5,0]];elSignalType=dc1;fillColor=#b0e3e6;strokeColor=#0e8088;" vertex="1" parent="1">
          <mxGeometry x="-350" y="-125" width="90" height="90" as="geometry" />
        </mxCell>
        <mxCell id="aDZ645ws1fKtsJkADAar-28" value="Source" style="text;html=1;strokeColor=none;fillColor=none;align=center;verticalAlign=middle;whiteSpace=wrap;rounded=0;fontSize=20;" vertex="1" parent="1">
          <mxGeometry x="-365" y="-30" width="120" height="30" as="geometry" />
        </mxCell>
        <mxCell id="aDZ645ws1fKtsJkADAar-29" value="Display Unit" style="text;html=1;strokeColor=none;fillColor=none;align=center;verticalAlign=middle;whiteSpace=wrap;rounded=0;fontSize=20;" vertex="1" parent="1">
          <mxGeometry x="-350" y="800" width="120" height="30" as="geometry" />
        </mxCell>
      </root>
    </mxGraphModel>
  </diagram>
</mxfile>
